<svg xmlns="http://www.w3.org/2000/svg" width="64" height="59" viewBox="0 0 64 59" fill="none">
<mask id="path-1-inside-1_417_2563" fill="white">
<path fill-rule="evenodd" clip-rule="evenodd" d="M32 59C49.6731 59 64 45.7924 64 29.5C64 13.2076 49.6731 0 32 0C14.3269 0 0 13.2076 0 29.5C0 45.7924 14.3269 59 32 59ZM36.9646 39.8338C36.9551 39.8635 36.9444 39.8971 36.9342 39.9367L36.9263 39.9604C36.0328 40.1222 35.1746 40.2248 34.3046 40.288C33.5443 40.3433 32.784 40.3749 32.0238 40.3749C30.9774 40.3709 29.9389 40.2959 28.9043 40.1577C28.6258 40.1227 28.3455 40.0839 28.0659 40.0453C27.9363 40.0273 27.8068 40.0094 27.6777 39.9919C27.6111 39.9801 27.5484 39.9643 27.4857 39.9485C27.4073 39.9288 27.321 39.838 27.3171 39.7669L27.3163 39.7557C27.3088 39.6493 27.3014 39.546 27.3014 39.4392C27.2936 36.964 27.2897 34.4926 27.3524 32.0174C27.4464 28.3577 27.4386 24.7021 27.3955 21.0464C27.3837 20.0876 27.3593 19.1302 27.3349 18.1725C27.3186 17.5332 27.3022 16.8938 27.2897 16.2538C27.2819 15.859 27.2191 15.4681 27.1564 15.0813C27.129 14.9115 27.0702 14.7418 26.9997 14.5838C26.8821 14.3154 26.6901 14.1101 26.4314 13.9719C26.2198 13.8574 25.9925 13.7745 25.7574 13.7351C25.4586 13.6833 25.1571 13.6448 24.8574 13.6065C24.7915 13.598 24.7257 13.5896 24.6601 13.5811L22.9789 13.3798C22.8927 13.3699 22.8064 13.361 22.7202 13.3521C22.634 13.3432 22.5478 13.3344 22.4616 13.3245C22.3897 13.3153 22.3179 13.3052 22.246 13.2951C22.1023 13.2749 21.9586 13.2547 21.8149 13.2416C21.5328 13.2139 21.329 13.06 21.1644 12.8468C20.7764 12.3375 20.6118 11.4651 21.0272 10.7387C21.2154 10.415 21.4818 10.2255 21.862 10.186C23.4844 10.0123 25.0873 9.72409 26.6862 9.4201C27.709 9.22666 28.7319 9.02137 29.7469 8.78845C31.1263 8.47657 32.4705 8.04626 33.8108 7.60411C34.2223 7.46988 34.6377 7.33566 35.0531 7.20933C35.3666 7.11063 35.688 7.07905 36.0171 7.13037C36.3307 7.17775 36.6011 7.31592 36.8205 7.53305C37.0988 7.8094 37.2516 8.13706 37.185 8.53974C37.1166 8.93406 37.1049 9.33334 37.0933 9.73168C37.0902 9.83584 37.0872 9.93993 37.0831 10.0439C36.9969 12.2546 36.9812 14.4654 36.993 16.6762V16.6766C36.993 16.8501 36.993 17.0277 36.9969 17.2012C37.0047 17.3789 37.0909 17.4697 37.283 17.4934C37.3163 17.4973 37.3486 17.5003 37.3809 17.5032C37.4133 17.5062 37.4456 17.5092 37.4789 17.5131C39.7088 17.7342 41.9034 18.1645 44.0353 18.8633C45.5049 19.3449 46.9157 19.9647 48.2364 20.7819C49.412 21.5122 50.4741 22.3729 51.3833 23.419C52.6883 24.9153 53.5269 26.6444 53.9306 28.5946C54.1892 29.8263 54.2597 31.0699 54.1539 32.3174C53.9697 34.4611 53.2291 36.3994 51.9319 38.1167C50.9052 39.4787 49.6472 40.5723 48.2207 41.4842C46.6335 42.4988 44.9249 43.241 43.1339 43.8055C41.825 44.2161 40.4965 44.5359 39.1444 44.753C39.0376 44.7705 38.9311 44.7883 38.8247 44.8061C38.3297 44.889 37.8378 44.9713 37.3378 45.0135C37.2712 45.0175 37.2046 45.0293 37.1497 45.0609C37.0988 45.0925 37.0478 45.1438 37.0243 45.1991C36.9969 45.2583 36.9969 45.3293 36.9969 45.3925C36.9825 46.0165 37.0369 46.634 37.0913 47.2509C37.0964 47.3092 37.1015 47.3674 37.1066 47.4257C37.1212 47.606 37.1699 47.7863 37.2177 47.9634C37.2211 47.9763 37.2246 47.9892 37.2281 48.002C37.377 48.5587 37.7415 48.91 38.294 49.0403C38.6076 49.1153 38.9328 49.1706 39.2581 49.1903C39.5451 49.2082 39.8318 49.2301 40.1184 49.252C40.7201 49.2981 41.3217 49.3442 41.9269 49.3522C42.0386 49.3544 42.1491 49.367 42.2597 49.3795C42.3431 49.389 42.4266 49.3984 42.5108 49.4035C42.8713 49.4232 43.1143 49.6246 43.2985 49.9167C43.5023 50.2404 43.5767 50.6076 43.565 50.9826C43.5571 51.18 43.5141 51.3774 43.4553 51.563C43.3926 51.7722 43.2789 51.9617 43.1222 52.1196C42.8949 52.3407 42.6362 52.4828 42.307 52.467C42.1444 52.4611 41.9817 52.4562 41.8191 52.4512C41.6565 52.4463 41.4938 52.4414 41.3312 52.4354C41.0325 52.4271 40.7342 52.4154 40.4363 52.4037C39.8861 52.382 39.3369 52.3604 38.7878 52.3604C35.2647 52.3446 31.7455 52.3407 28.2224 52.3367C27.4621 52.3367 26.7019 52.3446 25.9416 52.3525C25.8441 52.3533 25.7467 52.354 25.6492 52.3546C24.7239 52.3611 23.7988 52.3676 22.877 52.4354C22.6974 52.4505 22.5179 52.4544 22.3383 52.4583C22.2357 52.4605 22.1331 52.4627 22.0305 52.467C21.6268 52.4828 21.3172 52.2972 21.0821 51.9854C20.9058 51.7564 20.7999 51.4919 20.7764 51.1998C20.7451 50.801 20.7451 50.4102 20.941 50.047C21.0116 49.9128 21.1017 49.7864 21.2036 49.6759C21.3368 49.5298 21.5093 49.4311 21.7131 49.4114C21.7746 49.4058 21.8364 49.3999 21.8982 49.394C22.0964 49.3752 22.2958 49.3563 22.4929 49.3443C22.8265 49.3236 23.1601 49.3045 23.4937 49.2854C24.0497 49.2537 24.6057 49.2219 25.1617 49.1824C25.4439 49.1627 25.7221 49.1114 25.9964 49.0443C26.5412 48.91 26.9135 48.5863 27.0781 48.0218C27.1481 47.7886 27.1779 47.5554 27.208 47.3203C27.2166 47.253 27.2252 47.1854 27.2348 47.1177C27.321 46.49 27.3132 45.8544 27.2897 45.2188C27.2858 45.1399 27.2035 45.0491 27.1251 45.0372C26.9438 45.0107 26.7625 44.9862 26.5815 44.9618C26.3321 44.9281 26.0833 44.8945 25.8358 44.8556C23.0063 44.4174 20.2709 43.6752 17.7079 42.3685C16.6185 41.8158 15.5878 41.1644 14.6433 40.3867C13.8517 39.7353 13.1267 39.0089 12.5036 38.1878C11.3318 36.6442 10.5833 34.919 10.3168 32.9885C10.0542 31.0699 10.1914 29.1828 10.7792 27.3432C11.3828 25.4443 12.4487 23.8414 13.8987 22.4913C15.2233 21.2596 16.7439 20.3437 18.3898 19.6212C19.828 18.9896 21.3212 18.5356 22.8456 18.1803C23.6766 17.9849 24.5178 17.8445 25.3564 17.7046C25.4156 17.6947 25.4748 17.6849 25.534 17.675C25.6163 17.6592 25.7064 17.6592 25.7926 17.6592C25.8396 17.6552 25.9259 17.7342 25.9337 17.7776C25.9371 17.8024 25.9411 17.8273 25.9451 17.8521C25.9551 17.9141 25.9651 17.9761 25.9651 18.0382L26.0121 21.0582V21.1885C26.0082 21.3109 25.9455 21.4017 25.8358 21.4333C25.775 21.4504 25.7148 21.4679 25.6547 21.4855C25.5481 21.5166 25.4419 21.5476 25.3341 21.5754C24.809 21.7136 24.2995 21.911 23.7979 22.1163C23.2963 22.3215 22.8182 22.5781 22.3675 22.89C21.4897 23.498 20.796 24.2718 20.3179 25.2271C19.8947 26.068 19.5968 26.9602 19.4793 27.9037C19.2912 29.4039 19.2089 30.912 19.3108 32.424C19.3205 32.5772 19.3264 32.7304 19.3322 32.8832C19.3381 33.0374 19.344 33.1911 19.3539 33.3438C19.4205 34.3979 19.6086 35.4243 19.9926 36.4152C20.4864 37.6983 21.2859 38.7286 22.4145 39.5103C23.214 40.059 24.0762 40.4578 24.9932 40.746C26.0513 41.0776 27.1368 41.2947 28.2341 41.4526C28.5241 41.4961 28.8161 41.5227 29.1081 41.5493C29.4 41.576 29.692 41.6026 29.982 41.6461C30.2367 41.6855 30.5032 41.6895 30.7619 41.6895C30.873 41.6904 30.9841 41.6913 31.0952 41.6922C31.9834 41.6996 32.8716 41.707 33.7598 41.6895C34.5436 41.6737 35.3195 41.575 36.0954 41.4763C36.7224 41.3974 37.3417 41.2947 37.957 41.1605C38.9367 40.9512 39.893 40.671 40.8061 40.2525C41.9582 39.7235 42.9066 38.9418 43.663 37.9233C43.8824 37.6232 44.0705 37.2995 44.2273 36.964C44.6701 36.0007 44.9405 34.994 45.0542 33.9399C45.1718 32.8464 45.1757 31.7529 45.1796 30.6593C45.1835 29.8461 45.1091 29.0407 45.0307 28.2354C44.9405 27.3353 44.6936 26.4746 44.337 25.6456C43.6551 24.0665 42.5069 22.9453 40.9589 22.2465C39.8655 21.7531 38.729 21.3899 37.5494 21.1688C37.4717 21.1541 37.3939 21.1364 37.3153 21.1184C37.267 21.1075 37.2185 21.0964 37.1693 21.0859C37.1223 21.074 37.0282 21.1411 37.0243 21.1885C37.0218 21.209 37.0184 21.2298 37.015 21.2509C37.0079 21.2947 37.0008 21.3393 37.0008 21.382V39.0524C37.0008 39.2694 37.0008 39.4906 36.993 39.7077C36.993 39.7449 36.9806 39.7837 36.9646 39.8338Z"/>
</mask>
<path fill-rule="evenodd" clip-rule="evenodd" d="M32 59C49.6731 59 64 45.7924 64 29.5C64 13.2076 49.6731 0 32 0C14.3269 0 0 13.2076 0 29.5C0 45.7924 14.3269 59 32 59ZM36.9646 39.8338C36.9551 39.8635 36.9444 39.8971 36.9342 39.9367L36.9263 39.9604C36.0328 40.1222 35.1746 40.2248 34.3046 40.288C33.5443 40.3433 32.784 40.3749 32.0238 40.3749C30.9774 40.3709 29.9389 40.2959 28.9043 40.1577C28.6258 40.1227 28.3455 40.0839 28.0659 40.0453C27.9363 40.0273 27.8068 40.0094 27.6777 39.9919C27.6111 39.9801 27.5484 39.9643 27.4857 39.9485C27.4073 39.9288 27.321 39.838 27.3171 39.7669L27.3163 39.7557C27.3088 39.6493 27.3014 39.546 27.3014 39.4392C27.2936 36.964 27.2897 34.4926 27.3524 32.0174C27.4464 28.3577 27.4386 24.7021 27.3955 21.0464C27.3837 20.0876 27.3593 19.1302 27.3349 18.1725C27.3186 17.5332 27.3022 16.8938 27.2897 16.2538C27.2819 15.859 27.2191 15.4681 27.1564 15.0813C27.129 14.9115 27.0702 14.7418 26.9997 14.5838C26.8821 14.3154 26.6901 14.1101 26.4314 13.9719C26.2198 13.8574 25.9925 13.7745 25.7574 13.7351C25.4586 13.6833 25.1571 13.6448 24.8574 13.6065C24.7915 13.598 24.7257 13.5896 24.6601 13.5811L22.9789 13.3798C22.8927 13.3699 22.8064 13.361 22.7202 13.3521C22.634 13.3432 22.5478 13.3344 22.4616 13.3245C22.3897 13.3153 22.3179 13.3052 22.246 13.2951C22.1023 13.2749 21.9586 13.2547 21.8149 13.2416C21.5328 13.2139 21.329 13.06 21.1644 12.8468C20.7764 12.3375 20.6118 11.4651 21.0272 10.7387C21.2154 10.415 21.4818 10.2255 21.862 10.186C23.4844 10.0123 25.0873 9.72409 26.6862 9.4201C27.709 9.22666 28.7319 9.02137 29.7469 8.78845C31.1263 8.47657 32.4705 8.04626 33.8108 7.60411C34.2223 7.46988 34.6377 7.33566 35.0531 7.20933C35.3666 7.11063 35.688 7.07905 36.0171 7.13037C36.3307 7.17775 36.6011 7.31592 36.8205 7.53305C37.0988 7.8094 37.2516 8.13706 37.185 8.53974C37.1166 8.93406 37.1049 9.33334 37.0933 9.73168C37.0902 9.83584 37.0872 9.93993 37.0831 10.0439C36.9969 12.2546 36.9812 14.4654 36.993 16.6762V16.6766C36.993 16.8501 36.993 17.0277 36.9969 17.2012C37.0047 17.3789 37.0909 17.4697 37.283 17.4934C37.3163 17.4973 37.3486 17.5003 37.3809 17.5032C37.4133 17.5062 37.4456 17.5092 37.4789 17.5131C39.7088 17.7342 41.9034 18.1645 44.0353 18.8633C45.5049 19.3449 46.9157 19.9647 48.2364 20.7819C49.412 21.5122 50.4741 22.3729 51.3833 23.419C52.6883 24.9153 53.5269 26.6444 53.9306 28.5946C54.1892 29.8263 54.2597 31.0699 54.1539 32.3174C53.9697 34.4611 53.2291 36.3994 51.9319 38.1167C50.9052 39.4787 49.6472 40.5723 48.2207 41.4842C46.6335 42.4988 44.9249 43.241 43.1339 43.8055C41.825 44.2161 40.4965 44.5359 39.1444 44.753C39.0376 44.7705 38.9311 44.7883 38.8247 44.8061C38.3297 44.889 37.8378 44.9713 37.3378 45.0135C37.2712 45.0175 37.2046 45.0293 37.1497 45.0609C37.0988 45.0925 37.0478 45.1438 37.0243 45.1991C36.9969 45.2583 36.9969 45.3293 36.9969 45.3925C36.9825 46.0165 37.0369 46.634 37.0913 47.2509C37.0964 47.3092 37.1015 47.3674 37.1066 47.4257C37.1212 47.606 37.1699 47.7863 37.2177 47.9634C37.2211 47.9763 37.2246 47.9892 37.2281 48.002C37.377 48.5587 37.7415 48.91 38.294 49.0403C38.6076 49.1153 38.9328 49.1706 39.2581 49.1903C39.5451 49.2082 39.8318 49.2301 40.1184 49.252C40.7201 49.2981 41.3217 49.3442 41.9269 49.3522C42.0386 49.3544 42.1491 49.367 42.2597 49.3795C42.3431 49.389 42.4266 49.3984 42.5108 49.4035C42.8713 49.4232 43.1143 49.6246 43.2985 49.9167C43.5023 50.2404 43.5767 50.6076 43.565 50.9826C43.5571 51.18 43.5141 51.3774 43.4553 51.563C43.3926 51.7722 43.2789 51.9617 43.1222 52.1196C42.8949 52.3407 42.6362 52.4828 42.307 52.467C42.1444 52.4611 41.9817 52.4562 41.8191 52.4512C41.6565 52.4463 41.4938 52.4414 41.3312 52.4354C41.0325 52.4271 40.7342 52.4154 40.4363 52.4037C39.8861 52.382 39.3369 52.3604 38.7878 52.3604C35.2647 52.3446 31.7455 52.3407 28.2224 52.3367C27.4621 52.3367 26.7019 52.3446 25.9416 52.3525C25.8441 52.3533 25.7467 52.354 25.6492 52.3546C24.7239 52.3611 23.7988 52.3676 22.877 52.4354C22.6974 52.4505 22.5179 52.4544 22.3383 52.4583C22.2357 52.4605 22.1331 52.4627 22.0305 52.467C21.6268 52.4828 21.3172 52.2972 21.0821 51.9854C20.9058 51.7564 20.7999 51.4919 20.7764 51.1998C20.7451 50.801 20.7451 50.4102 20.941 50.047C21.0116 49.9128 21.1017 49.7864 21.2036 49.6759C21.3368 49.5298 21.5093 49.4311 21.7131 49.4114C21.7746 49.4058 21.8364 49.3999 21.8982 49.394C22.0964 49.3752 22.2958 49.3563 22.4929 49.3443C22.8265 49.3236 23.1601 49.3045 23.4937 49.2854C24.0497 49.2537 24.6057 49.2219 25.1617 49.1824C25.4439 49.1627 25.7221 49.1114 25.9964 49.0443C26.5412 48.91 26.9135 48.5863 27.0781 48.0218C27.1481 47.7886 27.1779 47.5554 27.208 47.3203C27.2166 47.253 27.2252 47.1854 27.2348 47.1177C27.321 46.49 27.3132 45.8544 27.2897 45.2188C27.2858 45.1399 27.2035 45.0491 27.1251 45.0372C26.9438 45.0107 26.7625 44.9862 26.5815 44.9618C26.3321 44.9281 26.0833 44.8945 25.8358 44.8556C23.0063 44.4174 20.2709 43.6752 17.7079 42.3685C16.6185 41.8158 15.5878 41.1644 14.6433 40.3867C13.8517 39.7353 13.1267 39.0089 12.5036 38.1878C11.3318 36.6442 10.5833 34.919 10.3168 32.9885C10.0542 31.0699 10.1914 29.1828 10.7792 27.3432C11.3828 25.4443 12.4487 23.8414 13.8987 22.4913C15.2233 21.2596 16.7439 20.3437 18.3898 19.6212C19.828 18.9896 21.3212 18.5356 22.8456 18.1803C23.6766 17.9849 24.5178 17.8445 25.3564 17.7046C25.4156 17.6947 25.4748 17.6849 25.534 17.675C25.6163 17.6592 25.7064 17.6592 25.7926 17.6592C25.8396 17.6552 25.9259 17.7342 25.9337 17.7776C25.9371 17.8024 25.9411 17.8273 25.9451 17.8521C25.9551 17.9141 25.9651 17.9761 25.9651 18.0382L26.0121 21.0582V21.1885C26.0082 21.3109 25.9455 21.4017 25.8358 21.4333C25.775 21.4504 25.7148 21.4679 25.6547 21.4855C25.5481 21.5166 25.4419 21.5476 25.3341 21.5754C24.809 21.7136 24.2995 21.911 23.7979 22.1163C23.2963 22.3215 22.8182 22.5781 22.3675 22.89C21.4897 23.498 20.796 24.2718 20.3179 25.2271C19.8947 26.068 19.5968 26.9602 19.4793 27.9037C19.2912 29.4039 19.2089 30.912 19.3108 32.424C19.3205 32.5772 19.3264 32.7304 19.3322 32.8832C19.3381 33.0374 19.344 33.1911 19.3539 33.3438C19.4205 34.3979 19.6086 35.4243 19.9926 36.4152C20.4864 37.6983 21.2859 38.7286 22.4145 39.5103C23.214 40.059 24.0762 40.4578 24.9932 40.746C26.0513 41.0776 27.1368 41.2947 28.2341 41.4526C28.5241 41.4961 28.8161 41.5227 29.1081 41.5493C29.4 41.576 29.692 41.6026 29.982 41.6461C30.2367 41.6855 30.5032 41.6895 30.7619 41.6895C30.873 41.6904 30.9841 41.6913 31.0952 41.6922C31.9834 41.6996 32.8716 41.707 33.7598 41.6895C34.5436 41.6737 35.3195 41.575 36.0954 41.4763C36.7224 41.3974 37.3417 41.2947 37.957 41.1605C38.9367 40.9512 39.893 40.671 40.8061 40.2525C41.9582 39.7235 42.9066 38.9418 43.663 37.9233C43.8824 37.6232 44.0705 37.2995 44.2273 36.964C44.6701 36.0007 44.9405 34.994 45.0542 33.9399C45.1718 32.8464 45.1757 31.7529 45.1796 30.6593C45.1835 29.8461 45.1091 29.0407 45.0307 28.2354C44.9405 27.3353 44.6936 26.4746 44.337 25.6456C43.6551 24.0665 42.5069 22.9453 40.9589 22.2465C39.8655 21.7531 38.729 21.3899 37.5494 21.1688C37.4717 21.1541 37.3939 21.1364 37.3153 21.1184C37.267 21.1075 37.2185 21.0964 37.1693 21.0859C37.1223 21.074 37.0282 21.1411 37.0243 21.1885C37.0218 21.209 37.0184 21.2298 37.015 21.2509C37.0079 21.2947 37.0008 21.3393 37.0008 21.382V39.0524C37.0008 39.2694 37.0008 39.4906 36.993 39.7077C36.993 39.7449 36.9806 39.7837 36.9646 39.8338Z" fill="#F7A708" stroke="#F7A708" stroke-width="4" mask="url(#path-1-inside-1_417_2563)"/>
</svg>