<svg xmlns="http://www.w3.org/2000/svg" width="64" height="60" viewBox="0 0 64 60" fill="none">
<mask id="path-1-inside-1_417_2570" fill="white">
<path fill-rule="evenodd" clip-rule="evenodd" d="M32 59.5C49.6731 59.5 64 46.2924 64 30C64 13.7076 49.6731 0.5 32 0.5C14.3269 0.5 0 13.7076 0 30C0 46.2924 14.3269 59.5 32 59.5ZM36.9646 40.3338C36.9551 40.3635 36.9444 40.3971 36.9342 40.4367L36.9263 40.4604C36.0328 40.6222 35.1746 40.7248 34.3046 40.788C33.5443 40.8433 32.784 40.8749 32.0238 40.8749C30.9774 40.8709 29.9389 40.7959 28.9043 40.6577C28.6258 40.6227 28.3455 40.5839 28.0659 40.5453C27.9363 40.5273 27.8068 40.5094 27.6777 40.4919C27.6111 40.4801 27.5484 40.4643 27.4857 40.4485C27.4073 40.4288 27.321 40.338 27.3171 40.2669L27.3163 40.2557C27.3088 40.1493 27.3014 40.046 27.3014 39.9392C27.2936 37.464 27.2897 34.9926 27.3524 32.5174C27.4464 28.8577 27.4386 25.2021 27.3955 21.5464C27.3837 20.5876 27.3593 19.6302 27.3349 18.6725C27.3186 18.0332 27.3022 17.3938 27.2897 16.7538C27.2819 16.359 27.2191 15.9681 27.1564 15.5813C27.129 15.4115 27.0702 15.2418 26.9997 15.0838C26.8821 14.8154 26.6901 14.6101 26.4314 14.4719C26.2198 14.3574 25.9925 14.2745 25.7574 14.2351C25.4586 14.1833 25.1571 14.1448 24.8574 14.1065C24.7915 14.098 24.7257 14.0896 24.6601 14.0811L22.9789 13.8798C22.8927 13.8699 22.8064 13.861 22.7202 13.8521C22.634 13.8432 22.5478 13.8344 22.4616 13.8245C22.3897 13.8153 22.3179 13.8052 22.246 13.7951C22.1023 13.7749 21.9586 13.7547 21.8149 13.7416C21.5328 13.7139 21.329 13.56 21.1644 13.3468C20.7764 12.8375 20.6118 11.9651 21.0272 11.2387C21.2154 10.915 21.4818 10.7255 21.862 10.686C23.4844 10.5123 25.0873 10.2241 26.6862 9.9201C27.709 9.72666 28.7319 9.52137 29.7469 9.28845C31.1263 8.97657 32.4705 8.54626 33.8108 8.10411C34.2223 7.96988 34.6377 7.83566 35.0531 7.70933C35.3666 7.61063 35.688 7.57905 36.0171 7.63037C36.3307 7.67775 36.6011 7.81592 36.8205 8.03305C37.0988 8.3094 37.2516 8.63706 37.185 9.03974C37.1166 9.43406 37.1049 9.83334 37.0933 10.2317C37.0902 10.3358 37.0872 10.4399 37.0831 10.5439C36.9969 12.7546 36.9812 14.9654 36.993 17.1762V17.1766C36.993 17.3501 36.993 17.5277 36.9969 17.7012C37.0047 17.8789 37.0909 17.9697 37.283 17.9934C37.3163 17.9973 37.3486 18.0003 37.3809 18.0032C37.4133 18.0062 37.4456 18.0092 37.4789 18.0131C39.7088 18.2342 41.9034 18.6645 44.0353 19.3633C45.5049 19.8449 46.9157 20.4647 48.2364 21.2819C49.412 22.0122 50.4741 22.8729 51.3833 23.919C52.6883 25.4153 53.5269 27.1444 53.9306 29.0946C54.1892 30.3263 54.2597 31.5699 54.1539 32.8174C53.9697 34.9611 53.2291 36.8994 51.9319 38.6167C50.9052 39.9787 49.6472 41.0723 48.2207 41.9842C46.6335 42.9988 44.9249 43.741 43.1339 44.3055C41.825 44.7161 40.4965 45.0359 39.1444 45.253C39.0376 45.2705 38.9311 45.2883 38.8247 45.3061C38.3297 45.389 37.8378 45.4713 37.3378 45.5135C37.2712 45.5175 37.2046 45.5293 37.1497 45.5609C37.0988 45.5925 37.0478 45.6438 37.0243 45.6991C36.9969 45.7583 36.9969 45.8293 36.9969 45.8925C36.9825 46.5165 37.0369 47.134 37.0913 47.7509C37.0964 47.8092 37.1015 47.8674 37.1066 47.9257C37.1212 48.106 37.1699 48.2863 37.2177 48.4634C37.2211 48.4763 37.2246 48.4892 37.2281 48.502C37.377 49.0587 37.7415 49.41 38.294 49.5403C38.6076 49.6153 38.9328 49.6706 39.2581 49.6903C39.5451 49.7082 39.8318 49.7301 40.1184 49.752C40.7201 49.7981 41.3217 49.8442 41.9269 49.8522C42.0386 49.8544 42.1491 49.867 42.2597 49.8795C42.3431 49.889 42.4266 49.8984 42.5108 49.9035C42.8713 49.9232 43.1143 50.1246 43.2985 50.4167C43.5023 50.7404 43.5767 51.1076 43.565 51.4826C43.5571 51.68 43.5141 51.8774 43.4553 52.063C43.3926 52.2722 43.2789 52.4617 43.1222 52.6196C42.8949 52.8407 42.6362 52.9828 42.307 52.967C42.1444 52.9611 41.9817 52.9562 41.8191 52.9512C41.6565 52.9463 41.4938 52.9414 41.3312 52.9354C41.0325 52.9271 40.7342 52.9154 40.4363 52.9037C39.8861 52.882 39.3369 52.8604 38.7878 52.8604C35.2647 52.8446 31.7455 52.8407 28.2224 52.8367C27.4621 52.8367 26.7019 52.8446 25.9416 52.8525C25.8441 52.8533 25.7467 52.854 25.6492 52.8546C24.7239 52.8611 23.7988 52.8676 22.877 52.9354C22.6974 52.9505 22.5179 52.9544 22.3383 52.9583C22.2357 52.9605 22.1331 52.9627 22.0305 52.967C21.6268 52.9828 21.3172 52.7972 21.0821 52.4854C20.9058 52.2564 20.7999 51.9919 20.7764 51.6998C20.7451 51.301 20.7451 50.9102 20.941 50.547C21.0116 50.4128 21.1017 50.2864 21.2036 50.1759C21.3368 50.0298 21.5093 49.9311 21.7131 49.9114C21.7746 49.9058 21.8364 49.8999 21.8982 49.894C22.0964 49.8752 22.2958 49.8563 22.4929 49.8443C22.8265 49.8236 23.1601 49.8045 23.4937 49.7854C24.0497 49.7537 24.6057 49.7219 25.1617 49.6824C25.4439 49.6627 25.7221 49.6114 25.9964 49.5443C26.5412 49.41 26.9135 49.0863 27.0781 48.5218C27.1481 48.2886 27.1779 48.0554 27.208 47.8203C27.2166 47.753 27.2252 47.6854 27.2348 47.6177C27.321 46.99 27.3132 46.3544 27.2897 45.7188C27.2858 45.6399 27.2035 45.5491 27.1251 45.5372C26.9438 45.5107 26.7625 45.4862 26.5815 45.4618C26.3321 45.4281 26.0833 45.3945 25.8358 45.3556C23.0063 44.9174 20.2709 44.1752 17.7079 42.8685C16.6185 42.3158 15.5878 41.6644 14.6433 40.8867C13.8517 40.2353 13.1267 39.5089 12.5036 38.6878C11.3318 37.1442 10.5833 35.419 10.3168 33.4885C10.0542 31.5699 10.1914 29.6828 10.7792 27.8432C11.3828 25.9443 12.4487 24.3414 13.8987 22.9913C15.2233 21.7596 16.7439 20.8437 18.3898 20.1212C19.828 19.4896 21.3212 19.0356 22.8456 18.6803C23.6766 18.4849 24.5178 18.3445 25.3564 18.2046C25.4156 18.1947 25.4748 18.1849 25.534 18.175C25.6163 18.1592 25.7064 18.1592 25.7926 18.1592C25.8396 18.1552 25.9259 18.2342 25.9337 18.2776C25.9371 18.3024 25.9411 18.3273 25.9451 18.3521C25.9551 18.4141 25.9651 18.4761 25.9651 18.5382L26.0121 21.5582V21.6885C26.0082 21.8109 25.9455 21.9017 25.8358 21.9333C25.775 21.9504 25.7148 21.9679 25.6547 21.9855C25.5481 22.0166 25.4419 22.0476 25.3341 22.0754C24.809 22.2136 24.2995 22.411 23.7979 22.6163C23.2963 22.8215 22.8182 23.0781 22.3675 23.39C21.4897 23.998 20.796 24.7718 20.3179 25.7271C19.8947 26.568 19.5968 27.4602 19.4793 28.4037C19.2912 29.9039 19.2089 31.412 19.3108 32.924C19.3205 33.0772 19.3264 33.2304 19.3322 33.3832C19.3381 33.5374 19.344 33.6911 19.3539 33.8438C19.4205 34.8979 19.6086 35.9243 19.9926 36.9152C20.4864 38.1983 21.2859 39.2286 22.4145 40.0103C23.214 40.559 24.0762 40.9578 24.9932 41.246C26.0513 41.5776 27.1368 41.7947 28.2341 41.9526C28.5241 41.9961 28.8161 42.0227 29.1081 42.0493C29.4 42.076 29.692 42.1026 29.982 42.1461C30.2367 42.1855 30.5032 42.1895 30.7619 42.1895C30.873 42.1904 30.9841 42.1913 31.0952 42.1922C31.9834 42.1996 32.8716 42.207 33.7598 42.1895C34.5436 42.1737 35.3195 42.075 36.0954 41.9763C36.7224 41.8974 37.3417 41.7947 37.957 41.6605C38.9367 41.4512 39.893 41.171 40.8061 40.7525C41.9582 40.2235 42.9066 39.4418 43.663 38.4233C43.8824 38.1232 44.0705 37.7995 44.2273 37.464C44.6701 36.5007 44.9405 35.494 45.0542 34.4399C45.1718 33.3464 45.1757 32.2529 45.1796 31.1593C45.1835 30.3461 45.1091 29.5407 45.0307 28.7354C44.9405 27.8353 44.6936 26.9746 44.337 26.1456C43.6551 24.5665 42.5069 23.4453 40.9589 22.7465C39.8655 22.2531 38.729 21.8899 37.5494 21.6688C37.4717 21.6541 37.3939 21.6364 37.3153 21.6184C37.267 21.6075 37.2185 21.5964 37.1693 21.5859C37.1223 21.574 37.0282 21.6411 37.0243 21.6885C37.0218 21.709 37.0184 21.7298 37.015 21.7509C37.0079 21.7947 37.0008 21.8393 37.0008 21.882V39.5524C37.0008 39.7694 37.0008 39.9906 36.993 40.2077C36.993 40.2449 36.9806 40.2837 36.9646 40.3338Z"/>
</mask>
<path fill-rule="evenodd" clip-rule="evenodd" d="M32 59.5C49.6731 59.5 64 46.2924 64 30C64 13.7076 49.6731 0.5 32 0.5C14.3269 0.5 0 13.7076 0 30C0 46.2924 14.3269 59.5 32 59.5ZM36.9646 40.3338C36.9551 40.3635 36.9444 40.3971 36.9342 40.4367L36.9263 40.4604C36.0328 40.6222 35.1746 40.7248 34.3046 40.788C33.5443 40.8433 32.784 40.8749 32.0238 40.8749C30.9774 40.8709 29.9389 40.7959 28.9043 40.6577C28.6258 40.6227 28.3455 40.5839 28.0659 40.5453C27.9363 40.5273 27.8068 40.5094 27.6777 40.4919C27.6111 40.4801 27.5484 40.4643 27.4857 40.4485C27.4073 40.4288 27.321 40.338 27.3171 40.2669L27.3163 40.2557C27.3088 40.1493 27.3014 40.046 27.3014 39.9392C27.2936 37.464 27.2897 34.9926 27.3524 32.5174C27.4464 28.8577 27.4386 25.2021 27.3955 21.5464C27.3837 20.5876 27.3593 19.6302 27.3349 18.6725C27.3186 18.0332 27.3022 17.3938 27.2897 16.7538C27.2819 16.359 27.2191 15.9681 27.1564 15.5813C27.129 15.4115 27.0702 15.2418 26.9997 15.0838C26.8821 14.8154 26.6901 14.6101 26.4314 14.4719C26.2198 14.3574 25.9925 14.2745 25.7574 14.2351C25.4586 14.1833 25.1571 14.1448 24.8574 14.1065C24.7915 14.098 24.7257 14.0896 24.6601 14.0811L22.9789 13.8798C22.8927 13.8699 22.8064 13.861 22.7202 13.8521C22.634 13.8432 22.5478 13.8344 22.4616 13.8245C22.3897 13.8153 22.3179 13.8052 22.246 13.7951C22.1023 13.7749 21.9586 13.7547 21.8149 13.7416C21.5328 13.7139 21.329 13.56 21.1644 13.3468C20.7764 12.8375 20.6118 11.9651 21.0272 11.2387C21.2154 10.915 21.4818 10.7255 21.862 10.686C23.4844 10.5123 25.0873 10.2241 26.6862 9.9201C27.709 9.72666 28.7319 9.52137 29.7469 9.28845C31.1263 8.97657 32.4705 8.54626 33.8108 8.10411C34.2223 7.96988 34.6377 7.83566 35.0531 7.70933C35.3666 7.61063 35.688 7.57905 36.0171 7.63037C36.3307 7.67775 36.6011 7.81592 36.8205 8.03305C37.0988 8.3094 37.2516 8.63706 37.185 9.03974C37.1166 9.43406 37.1049 9.83334 37.0933 10.2317C37.0902 10.3358 37.0872 10.4399 37.0831 10.5439C36.9969 12.7546 36.9812 14.9654 36.993 17.1762V17.1766C36.993 17.3501 36.993 17.5277 36.9969 17.7012C37.0047 17.8789 37.0909 17.9697 37.283 17.9934C37.3163 17.9973 37.3486 18.0003 37.3809 18.0032C37.4133 18.0062 37.4456 18.0092 37.4789 18.0131C39.7088 18.2342 41.9034 18.6645 44.0353 19.3633C45.5049 19.8449 46.9157 20.4647 48.2364 21.2819C49.412 22.0122 50.4741 22.8729 51.3833 23.919C52.6883 25.4153 53.5269 27.1444 53.9306 29.0946C54.1892 30.3263 54.2597 31.5699 54.1539 32.8174C53.9697 34.9611 53.2291 36.8994 51.9319 38.6167C50.9052 39.9787 49.6472 41.0723 48.2207 41.9842C46.6335 42.9988 44.9249 43.741 43.1339 44.3055C41.825 44.7161 40.4965 45.0359 39.1444 45.253C39.0376 45.2705 38.9311 45.2883 38.8247 45.3061C38.3297 45.389 37.8378 45.4713 37.3378 45.5135C37.2712 45.5175 37.2046 45.5293 37.1497 45.5609C37.0988 45.5925 37.0478 45.6438 37.0243 45.6991C36.9969 45.7583 36.9969 45.8293 36.9969 45.8925C36.9825 46.5165 37.0369 47.134 37.0913 47.7509C37.0964 47.8092 37.1015 47.8674 37.1066 47.9257C37.1212 48.106 37.1699 48.2863 37.2177 48.4634C37.2211 48.4763 37.2246 48.4892 37.2281 48.502C37.377 49.0587 37.7415 49.41 38.294 49.5403C38.6076 49.6153 38.9328 49.6706 39.2581 49.6903C39.5451 49.7082 39.8318 49.7301 40.1184 49.752C40.7201 49.7981 41.3217 49.8442 41.9269 49.8522C42.0386 49.8544 42.1491 49.867 42.2597 49.8795C42.3431 49.889 42.4266 49.8984 42.5108 49.9035C42.8713 49.9232 43.1143 50.1246 43.2985 50.4167C43.5023 50.7404 43.5767 51.1076 43.565 51.4826C43.5571 51.68 43.5141 51.8774 43.4553 52.063C43.3926 52.2722 43.2789 52.4617 43.1222 52.6196C42.8949 52.8407 42.6362 52.9828 42.307 52.967C42.1444 52.9611 41.9817 52.9562 41.8191 52.9512C41.6565 52.9463 41.4938 52.9414 41.3312 52.9354C41.0325 52.9271 40.7342 52.9154 40.4363 52.9037C39.8861 52.882 39.3369 52.8604 38.7878 52.8604C35.2647 52.8446 31.7455 52.8407 28.2224 52.8367C27.4621 52.8367 26.7019 52.8446 25.9416 52.8525C25.8441 52.8533 25.7467 52.854 25.6492 52.8546C24.7239 52.8611 23.7988 52.8676 22.877 52.9354C22.6974 52.9505 22.5179 52.9544 22.3383 52.9583C22.2357 52.9605 22.1331 52.9627 22.0305 52.967C21.6268 52.9828 21.3172 52.7972 21.0821 52.4854C20.9058 52.2564 20.7999 51.9919 20.7764 51.6998C20.7451 51.301 20.7451 50.9102 20.941 50.547C21.0116 50.4128 21.1017 50.2864 21.2036 50.1759C21.3368 50.0298 21.5093 49.9311 21.7131 49.9114C21.7746 49.9058 21.8364 49.8999 21.8982 49.894C22.0964 49.8752 22.2958 49.8563 22.4929 49.8443C22.8265 49.8236 23.1601 49.8045 23.4937 49.7854C24.0497 49.7537 24.6057 49.7219 25.1617 49.6824C25.4439 49.6627 25.7221 49.6114 25.9964 49.5443C26.5412 49.41 26.9135 49.0863 27.0781 48.5218C27.1481 48.2886 27.1779 48.0554 27.208 47.8203C27.2166 47.753 27.2252 47.6854 27.2348 47.6177C27.321 46.99 27.3132 46.3544 27.2897 45.7188C27.2858 45.6399 27.2035 45.5491 27.1251 45.5372C26.9438 45.5107 26.7625 45.4862 26.5815 45.4618C26.3321 45.4281 26.0833 45.3945 25.8358 45.3556C23.0063 44.9174 20.2709 44.1752 17.7079 42.8685C16.6185 42.3158 15.5878 41.6644 14.6433 40.8867C13.8517 40.2353 13.1267 39.5089 12.5036 38.6878C11.3318 37.1442 10.5833 35.419 10.3168 33.4885C10.0542 31.5699 10.1914 29.6828 10.7792 27.8432C11.3828 25.9443 12.4487 24.3414 13.8987 22.9913C15.2233 21.7596 16.7439 20.8437 18.3898 20.1212C19.828 19.4896 21.3212 19.0356 22.8456 18.6803C23.6766 18.4849 24.5178 18.3445 25.3564 18.2046C25.4156 18.1947 25.4748 18.1849 25.534 18.175C25.6163 18.1592 25.7064 18.1592 25.7926 18.1592C25.8396 18.1552 25.9259 18.2342 25.9337 18.2776C25.9371 18.3024 25.9411 18.3273 25.9451 18.3521C25.9551 18.4141 25.9651 18.4761 25.9651 18.5382L26.0121 21.5582V21.6885C26.0082 21.8109 25.9455 21.9017 25.8358 21.9333C25.775 21.9504 25.7148 21.9679 25.6547 21.9855C25.5481 22.0166 25.4419 22.0476 25.3341 22.0754C24.809 22.2136 24.2995 22.411 23.7979 22.6163C23.2963 22.8215 22.8182 23.0781 22.3675 23.39C21.4897 23.998 20.796 24.7718 20.3179 25.7271C19.8947 26.568 19.5968 27.4602 19.4793 28.4037C19.2912 29.9039 19.2089 31.412 19.3108 32.924C19.3205 33.0772 19.3264 33.2304 19.3322 33.3832C19.3381 33.5374 19.344 33.6911 19.3539 33.8438C19.4205 34.8979 19.6086 35.9243 19.9926 36.9152C20.4864 38.1983 21.2859 39.2286 22.4145 40.0103C23.214 40.559 24.0762 40.9578 24.9932 41.246C26.0513 41.5776 27.1368 41.7947 28.2341 41.9526C28.5241 41.9961 28.8161 42.0227 29.1081 42.0493C29.4 42.076 29.692 42.1026 29.982 42.1461C30.2367 42.1855 30.5032 42.1895 30.7619 42.1895C30.873 42.1904 30.9841 42.1913 31.0952 42.1922C31.9834 42.1996 32.8716 42.207 33.7598 42.1895C34.5436 42.1737 35.3195 42.075 36.0954 41.9763C36.7224 41.8974 37.3417 41.7947 37.957 41.6605C38.9367 41.4512 39.893 41.171 40.8061 40.7525C41.9582 40.2235 42.9066 39.4418 43.663 38.4233C43.8824 38.1232 44.0705 37.7995 44.2273 37.464C44.6701 36.5007 44.9405 35.494 45.0542 34.4399C45.1718 33.3464 45.1757 32.2529 45.1796 31.1593C45.1835 30.3461 45.1091 29.5407 45.0307 28.7354C44.9405 27.8353 44.6936 26.9746 44.337 26.1456C43.6551 24.5665 42.5069 23.4453 40.9589 22.7465C39.8655 22.2531 38.729 21.8899 37.5494 21.6688C37.4717 21.6541 37.3939 21.6364 37.3153 21.6184C37.267 21.6075 37.2185 21.5964 37.1693 21.5859C37.1223 21.574 37.0282 21.6411 37.0243 21.6885C37.0218 21.709 37.0184 21.7298 37.015 21.7509C37.0079 21.7947 37.0008 21.8393 37.0008 21.882V39.5524C37.0008 39.7694 37.0008 39.9906 36.993 40.2077C36.993 40.2449 36.9806 40.2837 36.9646 40.3338Z" stroke="#F7A708" stroke-width="4" mask="url(#path-1-inside-1_417_2570)"/>
</svg>