<svg width="385" height="385" viewBox="0 0 385 385" fill="none" xmlns="http://www.w3.org/2000/svg">
<path d="M192.496 64.8175H13.7458M192.496 64.8175C192.496 59.7869 193.487 54.8055 195.412 50.1579C197.337 45.5102 200.159 41.2872 203.716 37.73C207.273 34.1728 211.496 31.3511 216.144 29.426C220.791 27.5009 225.773 26.51 230.803 26.51C235.834 26.51 240.815 27.5009 245.463 29.426C250.111 31.3511 254.334 34.1728 257.891 37.73C261.448 41.2872 264.27 45.5102 266.195 50.1579C268.12 54.8055 269.111 59.7869 269.111 64.8175C269.111 69.8481 268.12 74.8295 266.195 79.4771C264.27 84.1248 261.448 88.3478 257.891 91.905C254.334 95.4622 250.111 98.2839 245.463 100.209C240.815 102.134 235.834 103.125 230.803 103.125C225.773 103.125 220.791 102.134 216.144 100.209C211.496 98.2839 207.273 95.4622 203.716 91.905C200.159 88.3478 197.337 84.1248 195.412 79.4771C193.487 74.8295 192.496 69.8481 192.496 64.8175ZM13.7458 64.8175L64.8134 115.885M13.7458 64.8175L64.8134 13.75M294.631 332.943C294.631 322.783 290.595 313.039 283.411 305.855C276.227 298.671 266.483 294.635 256.323 294.635C246.164 294.635 236.42 298.671 229.236 305.855C222.052 313.039 218.016 322.783 218.016 332.943C218.016 343.102 222.052 352.846 229.236 360.03C236.42 367.214 246.164 371.25 256.323 371.25C266.483 371.25 276.227 367.214 283.411 360.03C290.595 352.846 294.631 343.102 294.631 332.943ZM192.496 205.26C192.496 195.1 188.46 185.357 181.276 178.173C174.092 170.988 164.348 166.952 154.188 166.952C144.029 166.952 134.285 170.988 127.101 178.173C119.917 185.357 115.881 195.1 115.881 205.26C115.881 215.42 119.917 225.163 127.101 232.348C134.285 239.532 144.029 243.567 154.188 243.567C164.348 243.567 174.092 239.532 181.276 232.348C188.46 225.163 192.496 215.42 192.496 205.26Z" stroke="#F7A500" stroke-width="6" stroke-linecap="round" stroke-linejoin="round"/>
<path d="M192.5 205.262H301.015C319.398 204.898 336.906 197.34 349.778 184.21C362.65 171.081 369.86 153.427 369.86 135.04C369.86 116.654 362.65 98.9999 349.778 85.8705C336.906 72.741 319.398 65.1829 301.015 64.8191H269.115M115.885 205.262H77.5775C60.6457 205.262 44.4075 211.988 32.4349 223.96C20.4623 235.933 13.7362 252.171 13.7362 269.103C13.7362 286.035 20.4623 302.273 32.4349 314.245C44.4075 326.218 60.6457 332.944 77.5775 332.944H218.075M294.635 332.944H371.25" stroke="#F7A500" stroke-width="6" stroke-linecap="round" stroke-linejoin="round" stroke-dasharray="40 40"/>
</svg>
