<svg width="171" height="166" viewBox="0 0 171 166" fill="none" xmlns="http://www.w3.org/2000/svg">
<path d="M0.10447 78.592C0.624929 68.0576 3.20641 58.1005 7.58868 48.6762C10.6073 42.1824 14.4171 36.2548 18.9243 30.8488C27.1475 20.9916 37.005 13.521 48.3094 8.22606C53.972 5.57305 59.8428 3.57496 65.9009 2.23181C68.3263 1.68788 70.7724 1.23276 73.229 0.910849C74.9986 0.677739 76.789 0.511232 78.5689 0.366925C81.4523 0.122715 84.3356 0.0672123 87.219 0.133815C89.8733 0.189318 92.5172 0.411328 95.1612 0.722141C96.9411 0.93305 98.7107 1.19946 100.47 1.49917C104.342 2.1763 108.152 3.14205 111.91 4.352C119.904 6.94951 127.419 10.646 134.414 15.5302C144.407 22.5124 152.682 31.3151 159.022 42.1491C163.529 49.8418 166.683 58.1227 168.483 66.992C169.035 69.7005 169.41 72.4312 169.691 75.1953C170.149 79.802 170.17 84.4198 169.868 89.0265C169.545 94.0661 168.681 99.028 167.38 103.901C164.538 114.524 159.781 124.082 153.244 132.629C145.302 143.008 135.559 150.945 124.244 156.706C117.978 159.903 111.441 162.256 104.644 163.81C102.333 164.343 100.001 164.787 97.6594 165.131C96.0668 165.364 94.4533 165.52 92.8399 165.686C89.0302 166.086 85.2308 166.008 81.4211 165.964C78.9957 165.942 76.5912 165.631 74.1763 165.342C72.4587 165.131 70.7516 164.865 69.0445 164.554C63.9753 163.644 59.0205 162.245 54.1802 160.414C46.2484 157.405 38.8579 153.287 32.0503 148.003C23.4106 141.288 16.2179 133.129 10.6386 123.382C6.42285 116.023 3.41459 108.13 1.64503 99.7162C1.10375 97.1409 0.697794 94.5212 0.416745 91.8904C0.250198 90.3585 0.135697 88.8266 0.0732422 87.2948M97.7739 108.597C97.8467 108.297 97.93 108.119 97.93 107.953C97.9508 107.342 97.9508 106.721 97.9508 106.11C97.9508 90.1032 97.9508 74.0963 97.9508 58.0894C97.9508 57.5344 97.9508 56.9794 97.9508 56.4243C97.9508 56.2467 97.9925 56.058 98.0133 55.8804C98.0237 55.7472 98.2735 55.5585 98.3984 55.5918C98.7419 55.6695 99.075 55.7583 99.4081 55.8249C102.541 56.4465 105.56 57.4678 108.464 58.8554C112.576 60.8201 115.626 63.9727 117.437 68.4129C118.384 70.744 119.04 73.1639 119.279 75.6948C119.487 77.9593 119.685 80.2238 119.675 82.5105C119.664 85.5853 119.654 88.6601 119.342 91.735C119.04 94.6988 118.322 97.5294 117.145 100.238C116.729 101.181 116.229 102.092 115.646 102.935C113.637 105.799 111.118 107.997 108.058 109.485C105.633 110.661 103.093 111.449 100.491 112.038C98.8564 112.415 97.2118 112.704 95.5463 112.926C93.4853 113.203 91.4243 113.481 89.3424 113.525C86.6881 113.581 84.0338 113.547 81.3794 113.525C80.6924 113.525 79.9846 113.514 79.308 113.403C77.7674 113.159 76.206 113.103 74.6655 112.859C71.7509 112.415 68.8676 111.805 66.0571 110.872C63.6213 110.062 61.3313 108.941 59.2078 107.398C56.21 105.2 54.0865 102.303 52.775 98.695C51.7549 95.9088 51.2552 93.0226 51.0783 90.0588C51.0262 89.2041 51.0158 88.3382 50.9638 87.4724C50.6931 83.2209 50.9117 78.9805 51.4114 74.7623C51.7236 72.1093 52.5147 69.6006 53.6389 67.2362C54.9088 64.5499 56.7513 62.3742 59.0829 60.6647C60.28 59.7878 61.5499 59.0663 62.8823 58.489C64.2147 57.9118 65.5679 57.3568 66.9627 56.9683C67.4103 56.8462 67.8475 56.7019 68.2951 56.5687C68.5865 56.4798 68.7531 56.2245 68.7635 55.8804C68.7635 55.7583 68.7635 55.6362 68.7635 55.5141C68.7218 52.6835 68.6802 49.8529 68.6386 47.0222C68.6386 46.778 68.5865 46.5338 68.5553 46.2896C68.5345 46.1675 68.3055 45.9455 68.1806 45.9566C67.9516 45.9566 67.7121 45.9566 67.4936 46.001C65.1098 46.4228 62.7157 46.8335 60.3529 47.4219C56.3037 48.4209 52.3378 49.6975 48.5176 51.4735C44.1457 53.5049 40.107 56.0802 36.5887 59.5436C32.7373 63.3399 29.906 67.8467 28.303 73.1861C26.7416 78.3589 26.3773 83.6649 27.0747 89.0598C27.7825 94.4879 29.7707 99.3388 32.883 103.679C34.5381 105.988 36.4638 108.03 38.5664 109.862C41.075 112.049 43.8127 113.88 46.7064 115.434C53.514 119.109 60.7796 121.196 68.2951 122.428C69.4297 122.617 70.5747 122.761 71.7197 122.938C71.9279 122.972 72.1465 123.227 72.1569 123.449C72.2193 125.236 72.2401 127.023 72.0111 128.788C71.8966 129.643 71.8342 130.487 71.5948 131.33C71.1576 132.918 70.1687 133.828 68.7218 134.205C67.9932 134.394 67.2541 134.538 66.5047 134.594C64.1418 134.772 61.7789 134.894 59.416 135.049C58.729 135.093 58.0316 135.171 57.3446 135.238C56.8033 135.293 56.3453 135.571 55.9914 135.981C55.7208 136.292 55.4814 136.648 55.294 137.025C54.7735 138.046 54.7735 139.145 54.8568 140.266C54.9193 141.088 55.2003 141.831 55.6687 142.475C56.2933 143.352 57.1156 143.874 58.1877 143.83C58.9372 143.796 59.6867 143.807 60.4361 143.741C63.1425 143.53 65.8593 143.53 68.5761 143.508C70.5955 143.485 72.6149 143.463 74.6343 143.463C83.9921 143.474 93.3396 143.485 102.697 143.53C104.946 143.53 107.194 143.674 109.453 143.741C110.317 143.774 111.181 143.796 112.045 143.83C112.919 143.874 113.606 143.474 114.21 142.853C114.626 142.409 114.928 141.876 115.095 141.288C115.251 140.766 115.365 140.211 115.386 139.656C115.417 138.601 115.22 137.569 114.678 136.659C114.189 135.837 113.544 135.271 112.586 135.216C112.066 135.182 111.556 135.082 111.035 135.071C108.662 135.038 106.309 134.772 103.947 134.616C103.083 134.561 102.219 134.405 101.386 134.194C99.9182 133.828 98.9501 132.84 98.5546 131.275C98.4193 130.742 98.2735 130.198 98.2319 129.654C98.0757 127.756 97.8988 125.858 97.9404 123.937C97.9404 123.76 97.9404 123.56 98.0133 123.394C98.0757 123.238 98.2111 123.094 98.3464 123.005C98.4921 122.916 98.6691 122.883 98.846 122.872C100.459 122.728 102.042 122.417 103.645 122.139C107.236 121.529 110.765 120.63 114.241 119.475C118.998 117.888 123.537 115.801 127.752 112.948C131.541 110.384 134.883 107.309 137.61 103.479C141.055 98.6506 143.023 93.2002 143.512 87.1727C143.793 83.6649 143.606 80.1683 142.919 76.7049C141.846 71.2213 139.619 66.3593 136.153 62.1522C133.738 59.2106 130.917 56.7907 127.794 54.7371C124.286 52.4393 120.539 50.6965 116.635 49.3422C110.973 47.3775 105.144 46.1675 99.2208 45.5459C99.0438 45.5237 98.8773 45.5126 98.7003 45.4904C98.1903 45.4238 97.9612 45.1685 97.9404 44.6689C97.93 44.1805 97.93 43.681 97.93 43.1926C97.8988 36.9763 97.9404 30.76 98.1694 24.5438C98.2215 23.134 98.2111 21.7131 98.4401 20.3145C98.617 19.1822 98.2111 18.2609 97.472 17.4839C96.8891 16.8733 96.1709 16.4848 95.3381 16.3516C94.4638 16.2073 93.6102 16.2961 92.7775 16.5736C91.6741 16.9288 90.5707 17.3063 89.4778 17.6837C85.9178 18.9269 82.3475 20.1369 78.6834 21.0138C75.9874 21.6687 73.2707 22.246 70.5539 22.7899C66.3069 23.6446 62.0495 24.455 57.7401 24.9434C56.7305 25.0544 56.0226 25.5872 55.523 26.4975C54.4196 28.5399 54.8568 30.9931 55.8873 32.4251C56.3245 33.0245 56.8658 33.4575 57.6152 33.5352C58.1877 33.5907 58.7602 33.6906 59.3328 33.7683C59.7908 33.8238 60.2488 33.8682 60.7068 33.9237C62.1953 34.1124 63.6838 34.3011 65.1723 34.4898C66.1404 34.623 67.1188 34.7451 68.0869 34.9227C68.7114 35.0337 69.3152 35.2668 69.8773 35.5887C70.5643 35.9773 71.0743 36.5545 71.3866 37.3093C71.574 37.7533 71.7301 38.2307 71.803 38.708C71.9695 39.7958 72.1361 40.8948 72.1569 42.0048C72.2401 46.5005 72.3859 50.9851 72.4379 55.4808C72.5524 65.7598 72.5732 76.0389 72.3234 86.329C72.1569 93.289 72.1673 100.238 72.1881 107.198C72.1881 107.509 72.2089 107.808 72.2297 108.119C72.2401 108.319 72.4691 108.574 72.6773 108.63C72.8439 108.674 73.0104 108.719 73.1874 108.752C74.2699 108.907 75.3629 109.074 76.4455 109.218C79.1935 109.607 81.9519 109.818 84.7312 109.829C86.7506 109.829 88.7699 109.74 90.7893 109.585C93.1002 109.407 95.3798 109.118 97.7531 108.663L97.7739 108.597Z" fill="#F7A401"/>
</svg>
