<?xml version="1.0" standalone="no"?>
<!DOCTYPE svg PUBLIC "-//W3C//DTD SVG 20010904//EN"
 "http://www.w3.org/TR/2001/REC-SVG-20010904/DTD/svg10.dtd">
<svg version="1.0" xmlns="http://www.w3.org/2000/svg"
 width="300.000000pt" height="300.000000pt" viewBox="0 0 300.000000 300.000000"
 preserveAspectRatio="xMidYMid meet">
<metadata>
Created by potrace 1.10, written by Peter Selinger 2001-2011
</metadata>
<g transform="translate(0.000000,300.000000) scale(0.100000,-0.100000)"
fill="#000000" stroke="none">
<path d="M1095 2008 c-3 -13 -35 -162 -71 -333 -35 -170 -75 -359 -88 -418
-13 -60 -19 -110 -14 -113 5 -4 11 -4 12 -3 5 6 186 857 186 874 0 23 -19 18
-25 -7z"/>
<path d="M415 1971 c-3 -6 -17 -8 -31 -5 -15 4 -24 2 -24 -6 0 -7 -8 -9 -21
-5 -12 4 -19 3 -16 -2 6 -9 -60 -39 -76 -35 -5 1 -5 -3 -1 -9 5 -9 2 -10 -10
-6 -10 4 -15 3 -11 -3 3 -5 -4 -14 -16 -20 -27 -15 -85 -70 -73 -70 5 0 1 -5
-9 -11 -9 -6 -15 -14 -12 -20 4 -5 1 -9 -4 -9 -6 0 -11 -9 -11 -20 0 -11 -5
-20 -11 -20 -5 0 -8 -4 -4 -9 3 -5 0 -13 -6 -16 -5 -4 -8 -13 -5 -21 3 -7 1
-16 -5 -20 -12 -7 -9 -123 3 -130 5 -3 6 -14 3 -25 -4 -11 -2 -19 5 -19 7 0 9
-8 5 -21 -5 -15 -4 -19 4 -15 7 4 11 -1 11 -13 0 -11 8 -25 18 -30 9 -6 13
-11 8 -11 -5 0 1 -9 13 -19 12 -11 21 -22 19 -25 -4 -7 39 -46 45 -40 3 3 10
-4 17 -15 6 -12 15 -19 21 -16 5 4 9 1 9 -4 0 -6 3 -10 8 -10 19 3 33 -2 27
-10 -3 -5 -1 -12 5 -16 5 -3 10 0 10 7 0 10 2 10 9 0 5 -8 20 -15 35 -15 14
-1 26 -5 26 -8 0 -15 203 -14 208 1 2 6 16 10 31 10 14 0 37 7 49 16 12 8 22
12 22 8 0 -4 9 2 20 14 12 12 24 22 29 22 4 0 30 21 57 46 27 25 42 42 35 38
-8 -4 -4 8 9 27 13 19 28 36 32 37 5 2 5 8 2 13 -3 6 0 17 7 26 16 19 22 193
6 193 -5 0 -7 9 -4 20 3 13 1 18 -6 13 -6 -4 -8 0 -4 10 4 10 1 17 -5 17 -6 0
-8 3 -5 6 20 21 -151 193 -176 177 -6 -4 -8 0 -5 9 5 11 -1 14 -23 13 -16 -1
-29 2 -29 7 0 5 -5 6 -10 3 -6 -4 -16 -2 -23 3 -13 10 -16 11 -103 18 -39 4
-64 2 -69 -5z m229 -64 c72 -33 153 -109 182 -172 19 -41 24 -67 24 -140 0
-78 -4 -97 -26 -140 -34 -65 -97 -129 -151 -155 -95 -44 -134 -53 -219 -47
-326 23 -475 364 -254 578 86 83 163 110 291 105 77 -3 108 -9 153 -29z"/>
<path d="M480 1918 c-14 -5 -47 -14 -75 -20 -86 -17 -120 -55 -80 -88 19 -16
12 -23 -45 -53 -24 -12 -58 -39 -74 -60 -27 -34 -31 -47 -31 -101 0 -83 34
-134 111 -171 30 -14 54 -28 54 -31 0 -2 -7 -15 -15 -28 -36 -54 8 -73 165
-71 138 2 180 25 134 76 -20 22 -13 35 23 44 36 9 100 61 118 96 8 15 15 51
15 79 0 94 -45 152 -145 185 -60 20 -75 37 -75 86 0 51 -33 74 -80 57z m61
-67 c-4 -54 -8 -77 -17 -94 -5 -9 -4 -9 6 0 7 7 22 8 39 4 14 -5 32 -6 39 -4
6 3 12 -1 12 -7 0 -7 6 -10 14 -7 8 3 16 1 18 -4 2 -6 11 -11 21 -13 23 -3 67
-50 67 -71 0 -8 5 -15 10 -15 6 0 9 -22 8 -50 -2 -27 -7 -50 -11 -50 -5 0 -6
-4 -3 -9 3 -5 -1 -12 -9 -15 -8 -3 -14 -9 -13 -13 2 -4 0 -8 -4 -8 -4 0 -13
-9 -21 -19 -8 -11 -23 -21 -33 -22 -10 -2 -20 -7 -22 -13 -2 -5 -10 -7 -18 -4
-8 3 -14 0 -14 -6 0 -7 -6 -11 -12 -10 -7 1 -25 1 -40 0 -25 -1 -28 -4 -25
-33 2 -32 3 -33 47 -33 33 0 45 -4 45 -15 0 -13 -24 -15 -147 -17 -140 -1
-148 0 -148 18 0 16 7 19 40 19 33 0 42 4 52 25 14 31 7 39 -37 39 -19 0 -31
4 -28 10 4 5 -3 7 -15 4 -13 -4 -22 -1 -22 5 0 6 -3 7 -7 4 -3 -4 -15 0 -25
10 -10 9 -18 13 -18 9 0 -21 -62 54 -70 86 -12 41 2 118 21 118 6 0 8 4 5 8
-3 5 3 16 13 24 15 12 22 13 31 5 10 -9 11 -9 6 0 -6 10 22 34 47 39 4 1 8 2
10 4 1 1 9 3 17 5 8 2 22 6 30 9 12 5 15 0 15 -21 -1 -19 -8 -29 -21 -31 -33
-5 -55 -48 -60 -117 -2 -37 1 -67 6 -70 6 -4 8 -10 5 -15 -7 -12 15 -27 65
-44 50 -16 146 -20 155 -6 3 5 12 7 20 3 8 -3 15 0 15 7 0 9 4 9 17 -1 9 -8
14 -9 10 -3 -3 6 3 21 15 34 17 18 22 38 24 84 2 33 -2 66 -8 73 -6 7 -7 13
-4 13 16 0 -24 30 -48 36 -14 3 -26 10 -26 15 0 5 -6 9 -13 9 -9 0 -12 -30
-12 -122 l0 -123 -62 -1 -62 -2 4 163 c4 143 2 165 -12 176 -14 12 -16 12 -8
0 6 -11 4 -13 -9 -8 -10 4 -26 7 -37 7 -12 0 -19 7 -19 20 0 19 19 26 58 21 7
-1 30 4 50 10 20 7 40 13 44 14 3 0 10 4 14 8 5 4 17 7 28 5 18 -3 20 -9 17
-47z m-160 -188 c1 -14 1 -117 0 -138 -2 -19 -3 -19 -21 4 -22 26 -26 77 -8
116 11 24 27 34 29 18z m227 -25 c14 -57 -15 -156 -36 -121 -5 8 -8 138 -3
151 1 1 8 2 16 2 8 0 18 -14 23 -32z"/>
<path d="M1270 1880 c0 -79 0 -80 25 -80 25 0 25 1 25 80 0 79 0 80 -25 80
-25 0 -25 -1 -25 -80z"/>
<path d="M1350 1880 l0 -80 50 0 c44 0 50 3 50 20 0 17 -6 20 -27 18 -20 -2
-28 2 -28 12 0 9 9 15 25 15 16 0 26 6 28 18 3 14 -2 17 -25 15 -20 -2 -28 1
-28 12 0 10 8 14 28 12 22 -3 27 1 27 17 0 18 -6 21 -50 21 l-50 0 0 -80z"/>
<path d="M1480 1880 l0 -80 50 0 c44 0 50 3 50 21 0 18 -4 20 -30 14 -26 -6
-30 -4 -30 15 0 19 4 21 25 16 21 -5 25 -3 25 14 0 17 -4 19 -25 14 -19 -5
-25 -2 -25 10 0 11 9 16 30 16 23 0 30 4 30 20 0 17 -7 20 -50 20 l-50 0 0
-80z"/>
<path d="M1600 1881 l0 -81 55 0 c49 0 55 2 55 21 0 18 -4 20 -30 14 -26 -6
-30 -4 -30 14 0 18 4 20 25 15 21 -5 25 -3 25 16 0 19 -4 21 -25 16 -20 -5
-25 -3 -25 12 0 13 7 18 28 17 17 0 27 5 27 15 0 11 -14 16 -52 18 l-53 3 0
-80z"/>
<path d="M1265 1723 c-63 -17 -99 -85 -75 -143 27 -65 96 -88 161 -54 30 15
30 16 13 35 -15 17 -19 18 -34 4 -23 -20 -42 -19 -74 6 -29 23 -33 54 -10 87
17 25 71 31 92 10 10 -9 16 -9 28 4 15 15 14 17 -7 31 -29 19 -67 27 -94 20z"/>
<path d="M1462 1719 c-39 -12 -72 -60 -72 -107 0 -49 55 -102 104 -102 44 0
91 22 106 49 15 30 12 94 -6 120 -15 21 -72 52 -91 50 -4 0 -23 -5 -41 -10z
m82 -54 c40 -40 18 -107 -37 -113 -54 -7 -88 68 -50 110 20 22 66 24 87 3z"/>
<path d="M2628 1723 l-78 -4 0 -104 0 -105 84 0 c79 0 85 1 83 20 -1 18 -8 20
-59 20 -55 0 -58 1 -58 25 0 23 3 25 50 25 43 0 50 3 50 20 0 17 -7 20 -50 20
-43 0 -50 3 -50 20 0 18 7 20 55 20 52 0 55 1 55 25 0 14 -1 24 -2 23 -2 -1
-38 -4 -80 -5z"/>
<path d="M1650 1615 c0 -98 1 -105 20 -105 18 0 20 7 21 73 l1 72 30 -62 c17
-36 36 -63 45 -63 8 0 26 25 41 60 15 33 29 60 32 60 3 0 4 -31 2 -70 -4 -68
-3 -70 20 -70 23 0 23 2 23 105 l0 105 -27 0 c-24 0 -32 -9 -61 -65 l-32 -65
-30 65 c-25 58 -32 65 -57 65 l-28 0 0 -105z"/>
<path d="M1930 1615 l0 -105 25 0 c21 0 25 5 25 30 0 27 3 30 30 30 62 0 110
50 93 98 -15 42 -34 52 -105 52 l-68 0 0 -105z m128 42 c5 -26 -16 -47 -49
-47 -27 0 -29 3 -29 38 l0 39 37 -6 c25 -4 39 -12 41 -24z"/>
<path d="M2137 1638 c2 -75 5 -85 28 -105 37 -32 98 -31 130 2 22 22 25 32 25
105 0 79 0 80 -26 80 -25 0 -25 -1 -23 -70 2 -73 -9 -100 -42 -100 -37 0 -51
28 -47 101 3 68 3 69 -23 69 l-25 0 3 -82z"/>
<path d="M2350 1700 c0 -16 7 -20 30 -20 l30 0 0 -85 c0 -84 0 -85 25 -85 25
0 25 1 25 85 l0 85 30 0 c23 0 30 4 30 20 0 18 -7 20 -85 20 -78 0 -85 -2 -85
-20z"/>
<path d="M2750 1615 l0 -105 25 0 c21 0 25 5 25 30 0 25 4 30 25 30 17 0 29
-9 40 -30 12 -24 22 -30 46 -30 l31 0 -26 35 -27 34 21 21 c27 27 26 74 -2
100 -17 16 -35 20 -90 20 l-68 0 0 -105z m129 51 c21 -25 -4 -56 -44 -56 -33
0 -35 2 -35 35 0 33 2 35 34 35 18 0 39 -6 45 -14z"/>
<path d="M1170 1423 c-47 -17 -65 -67 -35 -97 9 -9 34 -20 56 -26 29 -8 39
-16 37 -28 -4 -23 -44 -27 -75 -7 -21 14 -27 15 -34 4 -14 -22 -11 -27 21 -44
64 -33 140 -9 140 45 0 36 -20 57 -70 70 -24 6 -40 17 -40 26 0 23 24 27 64
10 20 -8 36 -11 36 -6 0 4 3 15 6 23 9 24 -66 45 -106 30z"/>
<path d="M1363 1414 c-46 -23 -69 -76 -54 -126 16 -53 61 -81 119 -75 51 6 78
28 93 77 16 52 -8 106 -55 125 -44 19 -63 19 -103 -1z m99 -51 c39 -35 8 -113
-46 -113 -27 0 -66 42 -66 69 0 9 7 27 16 39 18 27 69 30 96 5z"/>
<path d="M1601 1413 c-20 -10 -39 -30 -48 -50 -42 -101 63 -192 158 -136 26
16 27 18 13 34 -14 16 -17 16 -44 1 -27 -16 -30 -16 -57 4 -68 51 -13 147 63
108 24 -13 28 -12 40 3 12 16 9 20 -24 35 -46 22 -58 22 -101 1z"/>
<path d="M1770 1318 l0 -108 25 0 26 0 -3 107 c-3 102 -4 106 -25 108 -23 2
-23 -1 -23 -107z"/>
<path d="M1864 1421 c-2 -2 -4 -51 -4 -108 l0 -103 85 0 c78 0 85 2 85 20 0
18 -7 20 -60 20 -57 0 -60 1 -60 25 0 23 3 25 50 25 43 0 50 3 50 20 0 17 -7
20 -50 20 -45 0 -50 2 -50 23 0 21 4 22 55 19 45 -3 55 -1 55 12 0 9 -1 19 -2
22 -3 7 -147 11 -154 5z"/>
<path d="M2050 1403 c0 -19 6 -23 30 -23 l30 0 0 -85 c0 -84 0 -85 25 -85 25
0 25 1 25 85 l0 85 30 0 c23 0 30 5 30 19 0 18 -9 20 -85 23 -82 3 -85 2 -85
-19z"/>
<path d="M2230 1422 c0 -3 16 -34 35 -69 23 -43 35 -77 35 -103 0 -36 3 -40
25 -40 22 0 25 4 25 36 0 25 13 60 40 106 22 39 40 72 40 74 0 2 -12 3 -26 2
-20 -2 -32 -14 -51 -52 l-25 -49 -25 45 c-17 30 -34 48 -49 51 -13 2 -24 2
-24 -1z"/>
<path d="M790 1253 c0 -2 5 -14 11 -25 8 -16 8 -19 -1 -13 -7 4 -16 1 -21 -6
-6 -9 -9 -10 -9 -2 0 6 5 15 10 18 20 12 -2 25 -42 25 -36 0 -39 -2 -27 -16 8
-9 14 -23 14 -30 0 -23 20 -17 27 8 6 22 6 22 7 -3 1 -24 5 -26 34 -24 28 2
32 6 35 32 2 24 -2 32 -17 36 -12 3 -21 3 -21 0z"/>
<path d="M1294 1103 c-4 -14 -15 -23 -33 -25 -18 -2 -27 -10 -29 -26 -5 -32
16 -54 47 -50 23 3 27 9 32 53 6 52 -7 88 -17 48z m-4 -64 c0 -23 -28 -26 -37
-3 -6 16 15 37 29 28 4 -3 8 -14 8 -25z"/>
<path d="M2080 1060 c0 -33 4 -60 10 -60 6 0 10 13 10 29 0 16 6 31 14 34 19
8 26 -1 26 -35 0 -15 5 -28 11 -28 6 0 9 16 7 38 -3 32 -7 37 -30 40 -20 2
-28 9 -28 23 0 10 -4 19 -10 19 -6 0 -10 -27 -10 -60z"/>
<path d="M2330 1060 c0 -33 4 -60 10 -60 6 0 10 13 10 29 0 16 6 31 14 34 19
8 26 -1 26 -35 0 -15 5 -28 11 -28 6 0 9 16 7 38 -3 32 -7 37 -30 40 -20 2
-28 9 -28 23 0 10 -4 19 -10 19 -6 0 -10 -27 -10 -60z"/>
<path d="M190 1055 c0 -30 5 -55 10 -55 6 0 10 15 10 33 l1 32 15 -27 c8 -16
17 -28 19 -28 2 0 11 12 19 28 l15 27 1 -32 c0 -55 18 -37 22 22 4 65 -10 72
-36 18 l-18 -37 -21 37 c-11 20 -25 37 -29 37 -4 0 -8 -25 -8 -55z"/>
<path d="M982 1098 c-20 -20 -13 -39 18 -49 40 -14 39 -33 -1 -25 -22 4 -29 2
-27 -7 7 -18 63 -21 77 -3 15 18 7 34 -25 46 -32 13 -31 34 1 28 17 -4 25 -1
25 8 0 17 -51 19 -68 2z"/>
<path d="M1634 1055 l-1 -55 36 0 c50 0 61 10 57 51 -4 51 -12 59 -54 59 l-38
0 0 -55z m66 20 c0 -8 -9 -15 -20 -15 -11 0 -20 7 -20 15 0 8 9 15 20 15 11 0
20 -7 20 -15z m8 -42 c2 -8 -6 -13 -22 -13 -17 0 -26 5 -26 16 0 19 41 16 48
-3z"/>
<path d="M2238 1099 c-26 -15 -24 -75 3 -89 24 -13 61 -10 66 7 3 7 -8 11 -29
10 -28 -2 -34 2 -36 22 -4 29 15 43 46 36 17 -4 23 -2 20 7 -6 17 -48 21 -70
7z"/>
<path d="M1069 1088 c-5 -48 10 -88 31 -88 23 0 27 15 5 24 -19 7 -19 35 0 42
12 5 12 8 0 20 -17 17 -35 18 -36 2z"/>
<path d="M1528 1088 c-2 -7 -2 -29 2 -48 4 -27 10 -36 28 -38 12 -2 22 1 22 7
0 6 -7 11 -15 11 -20 0 -19 36 1 44 14 5 14 8 0 21 -18 18 -32 19 -38 3z"/>
<path d="M2617 1085 c-4 -8 -2 -17 3 -20 6 -4 10 -19 10 -36 0 -22 5 -29 20
-29 11 0 20 5 20 10 0 6 -4 10 -10 10 -5 0 -10 11 -10 25 0 14 5 25 11 25 6 0
4 7 -5 15 -19 19 -32 19 -39 0z"/>
<path d="M690 1058 c0 -45 10 -57 48 -56 30 1 32 3 32 39 0 47 -18 61 -22 17
-2 -22 -9 -34 -20 -36 -15 -3 -18 4 -18 32 0 20 -4 36 -10 36 -5 0 -10 -15
-10 -32z"/>
<path d="M813 1082 c-19 -3 -23 -10 -23 -43 0 -21 5 -39 10 -39 6 0 10 11 10
25 0 13 7 28 16 33 23 13 14 28 -13 24z"/>
<path d="M1136 1083 c-10 -11 -7 -58 6 -71 7 -7 25 -12 40 -12 27 0 28 2 28
45 0 25 -4 45 -10 45 -5 0 -10 -16 -10 -36 0 -28 -3 -35 -17 -32 -13 3 -17 12
-15 30 2 26 -9 43 -22 31z"/>
<path d="M2795 1081 c-25 -8 -34 -81 -10 -81 10 0 15 10 15 26 0 15 7 32 17
39 19 14 6 24 -22 16z"/>
<path d="M330 1069 c0 -6 7 -8 16 -5 9 3 21 3 27 -1 7 -5 0 -10 -18 -13 -22
-4 -30 -11 -30 -25 0 -16 7 -20 38 -22 32 -1 37 2 37 22 0 41 -11 55 -41 55
-16 0 -29 -5 -29 -11z"/>
<path d="M420 1040 c0 -22 5 -40 10 -40 6 0 10 13 10 28 0 34 7 43 26 35 8 -3
14 -18 14 -34 0 -16 5 -29 10 -29 11 0 13 39 4 64 -4 10 -18 16 -40 16 -33 0
-34 -1 -34 -40z"/>
<path d="M517 1073 c-13 -12 -7 -22 21 -37 l27 -15 -29 -1 c-22 0 -27 -3 -19
-11 6 -6 21 -9 34 -7 33 4 32 40 -1 48 -17 4 -21 8 -12 14 6 4 16 5 21 1 5 -3
12 -1 16 5 7 11 -47 14 -58 3z"/>
<path d="M597 1074 c-12 -12 -8 -51 7 -64 8 -6 25 -10 38 -8 19 2 23 9 23 38
0 32 -3 35 -30 38 -17 2 -34 0 -38 -4z m53 -35 c0 -23 -28 -26 -37 -3 -6 16
15 37 29 28 4 -3 8 -14 8 -25z"/>
<path d="M850 1069 c0 -6 7 -8 16 -5 9 3 21 3 27 -1 7 -5 0 -10 -18 -13 -22
-4 -30 -11 -30 -25 0 -16 8 -21 38 -23 34 -3 37 -1 37 22 0 42 -10 56 -41 56
-16 0 -29 -5 -29 -11z"/>
<path d="M1342 1068 c-15 -15 -16 -40 0 -56 15 -15 54 -16 63 -2 3 6 -5 10
-19 10 -14 0 -28 5 -31 10 -4 6 7 10 25 10 25 0 31 4 28 18 -4 21 -48 28 -66
10z"/>
<path d="M1430 1041 c0 -23 5 -41 10 -41 6 0 10 13 10 29 0 16 6 31 14 34 19
8 26 -1 26 -35 0 -15 5 -28 11 -28 6 0 9 16 7 38 -3 35 -5 37 -40 40 l-38 3 0
-40z"/>
<path d="M1750 1040 c0 -22 5 -40 10 -40 6 0 10 14 10 30 0 17 3 30 8 31 4 0
18 2 32 4 35 4 50 -8 20 -15 -39 -9 -33 -44 8 -48 33 -3 33 -3 30 35 l-3 38
-57 3 -58 3 0 -41z"/>
<path d="M1890 1041 c0 -31 4 -41 16 -41 11 0 14 6 9 20 -7 22 11 53 26 44 5
-3 9 -18 9 -35 0 -16 5 -29 11 -29 6 0 9 16 7 38 -3 35 -5 37 -40 40 l-38 3 0
-40z"/>
<path d="M1997 1073 c-12 -12 -7 -50 8 -63 16 -13 47 -10 52 6 2 6 -7 10 -19
10 -14 -1 -24 6 -26 17 -3 13 3 17 28 17 18 0 29 4 25 10 -7 11 -58 14 -68 3z"/>
<path d="M2430 1070 c0 -7 7 -9 16 -6 9 3 21 3 27 -1 7 -4 2 -9 -13 -13 -39
-9 -33 -44 8 -48 33 -3 33 -3 30 35 -3 35 -6 38 -35 41 -20 2 -33 -1 -33 -8z"/>
<path d="M2520 1025 c0 -30 5 -55 10 -55 6 0 10 8 10 19 0 14 6 17 24 14 17
-4 27 1 35 16 18 33 -2 61 -44 61 l-35 0 0 -55z m66 6 c-10 -16 -36 -13 -43 5
-8 22 18 37 36 20 7 -8 10 -19 7 -25z"/>
<path d="M2687 1073 c-11 -11 -8 -48 5 -61 15 -15 58 -16 58 -2 0 6 -11 10
-25 10 -14 0 -25 5 -25 10 0 6 14 10 31 10 24 0 30 3 25 16 -3 9 -6 18 -6 20
0 7 -56 5 -63 -3z"/>
</g>
</svg>
