<svg width="225" height="286" viewBox="0 0 225 286" fill="none" xmlns="http://www.w3.org/2000/svg">
<path d="M112.501 112.501C143.349 112.501 168.334 87.5152 168.334 56.6673C168.334 25.8194 143.349 0.833984 112.501 0.833984C81.6527 0.833984 56.6673 25.8194 56.6673 56.6673C56.6673 87.5152 81.6527 112.501 112.501 112.501ZM112.501 124.501C75.2319 124.501 0.833984 143.205 0.833984 180.334V290.001C0.833984 297.678 7.11523 303.959 14.7923 303.959H112.501H210.209C217.886 303.959 224.167 297.678 224.167 290.001V180.334C224.167 143.205 149.769 124.501 112.501 124.501Z" fill="url(#paint0_linear_1480_11456)"/>
<defs>
<linearGradient id="paint0_linear_1480_11456" x1="112.501" y1="0.833984" x2="112.501" y2="303.959" gradientUnits="userSpaceOnUse">
<stop stop-color="#FFEBC1"/>
<stop offset="1" stop-color="#312C24"/>
</linearGradient>
</defs>
</svg>
