<svg width="46" height="46" viewBox="0 0 46 46" fill="none" xmlns="http://www.w3.org/2000/svg">
<path d="M23 20.1995C29.2931 20.1995 34.6421 19.2136 39.0472 17.2418C43.4524 15.27 45.6549 12.8996 45.6549 10.1307C45.6549 7.36178 43.4524 4.99142 39.0472 3.01961C34.6421 1.0478 29.2931 0.0618896 23 0.0618896C16.707 0.0618896 11.358 1.0478 6.95285 3.01961C2.54774 4.99142 0.345184 7.36178 0.345184 10.1307C0.345184 12.8996 2.54774 15.27 6.95285 17.2418C11.358 19.2136 16.707 20.1995 23 20.1995ZM23 26.4925C24.7201 26.4925 26.8707 26.3138 29.4517 25.9564C32.0326 25.5989 34.518 25.0225 36.9076 24.2271C39.2973 23.4316 41.353 22.3937 43.0748 21.1133C44.7965 19.8329 45.6566 18.2697 45.6549 16.4237V22.7167C45.6549 24.5627 44.7949 26.1259 43.0748 27.4063C41.3547 28.6867 39.299 29.7246 36.9076 30.5201C34.5163 31.3155 32.0309 31.8928 29.4517 32.2519C26.8724 32.611 24.7218 32.7889 23 32.7856C21.2783 32.7822 19.1286 32.6035 16.551 32.2494C13.9733 31.8953 11.4872 31.3189 9.09248 30.5201C6.69778 29.7213 4.64206 28.6833 2.92532 27.4063C1.20859 26.1292 0.348541 24.566 0.345184 22.7167V16.4237C0.345184 18.2697 1.20523 19.8329 2.92532 21.1133C4.64541 22.3937 6.70113 23.4316 9.09248 24.2271C11.4838 25.0225 13.97 25.5998 16.551 25.9589C19.1319 26.318 21.2816 26.4959 23 26.4925ZM23 39.0786C24.7201 39.0786 26.8707 38.8998 29.4517 38.5424C32.0326 38.185 34.518 37.6085 36.9076 36.8131C39.2973 36.0176 41.353 34.9797 43.0748 33.6993C44.7965 32.4189 45.6566 30.8557 45.6549 29.0097V35.3028C45.6549 37.1487 44.7949 38.7119 43.0748 39.9923C41.3547 41.2727 39.299 42.3107 36.9076 43.1061C34.5163 43.9015 32.0309 44.4788 29.4517 44.8379C26.8724 45.197 24.7218 45.3749 23 45.3716C21.2783 45.3682 19.1286 45.1895 16.551 44.8354C13.9733 44.4813 11.4872 43.9049 9.09248 43.1061C6.69778 42.3073 4.64206 41.2694 2.92532 39.9923C1.20859 38.7152 0.348541 37.1521 0.345184 35.3028V29.0097C0.345184 30.8557 1.20523 32.4189 2.92532 33.6993C4.64541 34.9797 6.70113 36.0176 9.09248 36.8131C11.4838 37.6085 13.97 38.1858 16.551 38.5449C19.1319 38.904 21.2816 39.0819 23 39.0786Z" fill="#F7A500"/>
</svg>
