<svg width="73" height="72" viewBox="0 0 73 72" fill="none" xmlns="http://www.w3.org/2000/svg">
<path d="M63.2299 33.3599C63.2299 48.0299 52.58 61.7699 38.03 65.7899C37.04 66.0599 35.9599 66.0599 34.9699 65.7899C20.4199 61.7699 9.76993 48.0299 9.76993 33.3599V20.19C9.76993 17.73 11.63 14.94 13.94 14.01L30.6499 7.16996C34.3999 5.63996 38.6299 5.63996 42.3799 7.16996L59.0899 14.01C61.3699 14.94 63.26 17.73 63.26 20.19L63.2299 33.3599Z" fill="#F7A500"/>
<path d="M43.9999 31.4998C43.9999 27.3598 40.6399 23.9998 36.4999 23.9998C32.3599 23.9998 28.9999 27.3598 28.9999 31.4998C28.9999 34.8598 31.2199 37.6497 34.2499 38.6097V46.4998C34.2499 47.7298 35.2699 48.7498 36.4999 48.7498C37.7299 48.7498 38.7499 47.7298 38.7499 46.4998V38.6097C41.7799 37.6497 43.9999 34.8598 43.9999 31.4998Z" fill="#262626"/>
</svg>
