<svg width="73" height="72" viewBox="0 0 73 72" fill="none" xmlns="http://www.w3.org/2000/svg">
<path d="M64.2499 38.25C65.5099 38.25 66.4999 37.23 66.4999 36C66.4999 34.74 65.5099 33.75 64.2499 33.75H60.4999V27.15H64.2499C65.5099 27.15 66.4999 26.16 66.4999 24.9C66.4999 23.67 65.5099 22.65 64.2499 22.65H59.8099C58.3699 17.88 54.6199 14.13 49.8499 12.69V8.25C49.8499 7.02 48.8299 6 47.5999 6C46.3699 6 45.3499 7.02 45.3499 8.25V12H38.7499V8.25C38.7499 7.02 37.7299 6 36.4999 6C35.2699 6 34.2499 7.02 34.2499 8.25V12H27.6799V8.25C27.6799 7.02 26.6599 6 25.4299 6C24.1699 6 23.1799 7.02 23.1799 8.25V12.69C18.3799 14.13 14.6299 17.88 13.1899 22.65H8.74995C7.51995 22.65 6.49995 23.67 6.49995 24.9C6.49995 26.16 7.51995 27.15 8.74995 27.15H12.4999V33.75H8.74995C7.51995 33.75 6.49995 34.74 6.49995 36C6.49995 37.23 7.51995 38.25 8.74995 38.25H12.4999V44.85H8.74995C7.51995 44.85 6.49995 45.84 6.49995 47.1C6.49995 48.33 7.51995 49.35 8.74995 49.35H13.1899C14.5999 54.12 18.3799 57.87 23.1799 59.31V63.75C23.1799 64.98 24.1699 66 25.4299 66C26.6599 66 27.6799 64.98 27.6799 63.75V60H34.2799V63.75C34.2799 64.98 35.2699 66 36.5299 66C37.7599 66 38.7799 64.98 38.7799 63.75V60H45.3499V63.75C45.3499 64.98 46.3699 66 47.5999 66C48.8299 66 49.8499 64.98 49.8499 63.75V59.31C54.6199 57.87 58.3699 54.12 59.8099 49.35H64.2499C65.5099 49.35 66.4999 48.33 66.4999 47.1C66.4999 45.84 65.5099 44.85 64.2499 44.85H60.4999V38.25H64.2499ZM52.2799 42.78C52.2799 47.73 48.2299 51.78 43.2799 51.78H29.7199C24.7699 51.78 20.7199 47.73 20.7199 42.78V29.22C20.7199 24.27 24.7699 20.22 29.7199 20.22H43.2799C48.2299 20.22 52.2799 24.27 52.2799 29.22V42.78Z" fill="#F7A500"/>
<path d="M30.5601 48.75H42.4701C46.2201 48.75 49.2801 45.72 49.2801 41.94V30.03C49.2801 26.28 46.2501 23.22 42.4701 23.22H30.5601C26.8101 23.22 23.7501 26.25 23.7501 30.03V41.94C23.7501 45.72 26.7801 48.75 30.5601 48.75Z" fill="#F7A500"/>
</svg>
