<svg width="64" height="64" viewBox="0 0 64 64" fill="none" xmlns="http://www.w3.org/2000/svg">
<path d="M52.8273 5.28613H11.1461C9.56024 5.28613 8.34445 6.66053 8.52947 8.21994L13.287 51.0905C13.3927 52.1477 14.1593 53.0463 15.1901 53.3371L31.2598 57.936C31.7355 58.0682 32.2378 58.0682 32.7136 57.936L48.7833 53.3371C49.8141 53.0463 50.5543 52.1477 50.6864 51.0905L55.4439 8.21994C55.6289 6.66053 54.4132 5.28613 52.8273 5.28613ZM43.233 19.823H22.9871L23.8592 27.7522H41.9114C42.4665 27.7522 42.9951 27.9901 43.3915 28.413C43.7616 28.8359 43.9466 29.3909 43.8937 29.946L42.5722 43.1613C42.4929 43.9806 41.9379 44.6414 41.145 44.8793L31.8943 47.5223C31.7092 47.5752 31.5242 47.6016 31.3392 47.6016C31.1541 47.6016 30.9691 47.5752 30.7841 47.5223L21.5333 44.8793C20.6875 44.6414 20.1061 43.8485 20.1061 42.9763V37.6901C20.1061 36.6065 21.0048 35.7078 22.0884 35.7078C23.1721 35.7078 24.0707 36.6065 24.0707 37.6901V41.4697L31.3392 43.5577L38.7397 41.4433L39.7176 31.7432H22.0884C21.0841 31.7432 20.2383 30.9767 20.1061 29.9724L18.7846 18.0786C18.7317 17.5235 18.8903 16.9685 19.2868 16.5456C19.6568 16.1227 20.2118 15.8848 20.7669 15.8848H43.233C44.3166 15.8848 45.2153 16.7835 45.2153 17.8671C45.2153 18.9508 44.3166 19.823 43.233 19.823Z" fill="#F7A500"/>
</svg>
