<svg width="75" height="72" viewBox="0 0 75 72" fill="none" xmlns="http://www.w3.org/2000/svg">
<path d="M21.5156 30.1181C21.4331 32.6937 22.7294 33.8343 22.7614 34.5587C22.7462 34.7061 22.6956 34.8478 22.614 34.9718C22.5323 35.0959 22.4219 35.1987 22.292 35.2717L20.8263 36.2905C20.6366 36.4226 20.413 36.4983 20.1816 36.5089C20.1323 36.5066 19.2438 36.717 17.8365 33.5966C16.9779 34.661 15.8855 35.5162 14.6429 36.0966C13.4002 36.6771 12.0403 36.9675 10.6672 36.9455C8.80302 37.0467 3.75097 35.8948 4.0109 30.5536C3.82884 26.2006 7.91101 23.4964 12.1329 23.725C12.9459 23.7273 14.6062 23.7671 17.5136 24.438V22.6618C17.8216 19.6529 15.8303 17.3183 12.3825 17.6685C12.1077 17.6697 10.1611 17.6117 7.13351 18.8182C6.29074 19.2026 6.1831 19.1389 5.90256 19.1389C5.05406 19.1389 5.40331 16.6963 5.56591 16.387C6.16249 15.6592 9.67213 14.3003 13.1165 14.3196C15.4195 14.1174 17.7102 14.8233 19.4934 16.2846C20.2182 17.0899 20.7711 18.0326 21.1189 19.056C21.4666 20.0793 21.602 21.162 21.5167 22.2388L21.5156 30.1181ZM11.6199 33.8013C15.3334 33.7479 16.9055 31.5304 17.2639 30.3364C17.5456 29.1936 17.4987 28.4704 17.4987 27.2206C16.3914 26.9568 14.7975 26.6691 12.9688 26.6668C11.234 26.5372 8.0656 27.307 8.18926 30.3353C8.04727 32.2446 9.46258 33.9059 11.6199 33.8013ZM31.1914 36.4225C30.2914 36.5043 29.8723 35.8698 29.7395 35.2432L24.037 16.52C23.926 16.2039 23.8527 15.8775 23.8172 15.5443C23.7961 15.407 23.8309 15.2669 23.9138 15.155C23.9966 15.0431 24.1209 14.9684 24.2592 14.9473C24.2867 14.9428 24.0153 14.9473 26.807 14.9473C27.8123 14.8473 28.1398 15.633 28.244 16.1266L32.3342 32.1411L36.1313 16.1266C36.192 15.7604 36.4679 14.8677 37.597 14.9621H39.5619C39.8104 14.9417 40.8341 14.9053 41.0138 16.1414L44.8407 32.3605L49.0625 16.1414C49.1175 15.8935 49.374 14.8484 50.5145 14.9621H52.7726C52.8699 14.9473 53.4768 14.87 53.3737 15.9378C53.3245 16.1482 53.7642 14.7256 47.3335 35.258C47.2018 35.8846 46.7816 36.5191 45.8815 36.4372H43.7414C42.4887 36.568 42.3089 35.3387 42.2895 35.2148L38.4924 19.621L34.7389 35.1989C34.7205 35.3228 34.5408 36.5521 33.2869 36.4213H31.1914V36.4225ZM62.5068 37.0627C61.8335 37.0638 58.6227 37.0286 55.9387 35.6651C55.6713 35.5527 55.4436 35.364 55.2843 35.1229C55.1251 34.8817 55.0416 34.5991 55.0444 34.3108V33.0883C55.0444 32.1274 55.7543 32.3037 56.0555 32.4185C57.2051 32.8802 57.9426 33.2305 59.3544 33.5102C63.5511 34.3665 65.397 33.2487 65.8493 33.0008C67.355 32.1126 67.4741 30.0806 66.4504 29.0264C65.2504 28.0269 64.6779 27.9893 60.3667 26.6384C59.8354 26.4917 55.3627 25.0907 55.3524 20.6843C55.2826 17.473 58.2208 14.2958 63.3129 14.3219C64.7637 14.3208 68.6295 14.7916 69.6761 16.0981C69.8307 16.3358 69.9074 16.6155 69.896 16.8987V18.0484C69.896 18.5533 69.7104 18.8057 69.3383 18.8057C68.4555 18.7079 66.889 17.5355 63.7091 17.5833C62.9202 17.5423 59.1415 17.6867 59.3109 20.4227C59.2617 22.5788 62.358 23.3873 62.7118 23.4805C66.8867 24.728 68.2825 24.9349 69.9395 26.8442C71.9021 29.3744 70.8441 32.3367 70.4376 33.1486C68.2528 37.4118 62.603 37.0649 62.5068 37.0627ZM67.11 48.9868C59.0911 54.8682 47.4503 57.9988 37.5111 57.9988C24.1001 58.0866 11.1411 53.1894 1.18143 44.2699C0.433703 43.6002 1.09326 42.6825 2.00245 43.1931C13.0506 49.4692 25.5594 52.7668 38.2874 52.7588C47.7924 52.7082 57.1936 50.7934 65.9512 47.1242C67.3001 46.5556 68.444 48.0112 67.11 48.9868ZM70.4525 45.2013C69.4265 43.8913 63.6645 44.5895 61.0846 44.8954C60.3071 44.9829 60.1755 44.3131 60.8797 43.8185C65.468 40.6151 73.0037 41.5328 73.8693 42.6097C74.7339 43.6866 73.6346 51.185 69.3394 54.767C68.6799 55.3208 68.049 55.0285 68.3421 54.3008C69.3085 51.8843 71.4784 46.5124 70.4525 45.2013Z" fill="#F7A500"/>
</svg>
