<svg width="64" height="64" viewBox="0 0 64 64" fill="none" xmlns="http://www.w3.org/2000/svg">
<path d="M23.199 6.41907H30.867V21.756H23.199C18.9615 21.756 15.5303 18.3255 15.5301 14.088C15.5301 9.85035 18.9614 6.41907 23.199 6.41907Z" fill="#F7A500" stroke="#262626" stroke-width="2.26549"/>
<path d="M23.199 24.0482H30.867V39.3851H23.199C18.9615 39.3851 15.5303 35.9547 15.5301 31.7172C15.5301 27.4795 18.9614 24.0482 23.199 24.0482Z" fill="#F7A500" stroke="#262626" stroke-width="2.26549"/>
<path d="M23.199 41.6511H30.867V49.3201C30.8668 53.5574 27.4364 56.9878 23.199 56.988C18.9615 56.988 15.5302 53.5576 15.5301 49.3201C15.5301 45.0824 18.9614 41.6511 23.199 41.6511Z" fill="#F7A500" stroke="#262626" stroke-width="2.26549"/>
<path d="M40.8018 6.41907C45.0393 6.41923 48.4697 9.85045 48.4697 14.088C48.4695 18.3254 45.0391 21.7558 40.8018 21.756H33.1328V6.41907H40.8018Z" fill="#F7A500" stroke="#262626" stroke-width="2.26549"/>
<path d="M40.8018 24.0482C45.0393 24.0484 48.4697 27.4796 48.4697 31.7172C48.4695 35.9546 45.0391 39.385 40.8018 39.3851C36.5642 39.3851 33.133 35.9546 33.1328 31.7172C33.1328 27.4795 36.5641 24.0482 40.8018 24.0482Z" fill="#F7A500" stroke="#262626" stroke-width="2.26549"/>
</svg>
